PathFileType  4	(X/Y/Z) C:\Users\antoi\Documents\MyRepositories\mobilecap\ResultsAnalysis
DataRate	CameraRate	NumFrames	NumMarkers	Units	OrigDataRate	OrigDataStartFrame	OrigNumFrames
100.0	100.0	6	51	mm	100.0	219	1747
Frame#	Time	r_knee			r_shank_antsup			r_ankle			r_calc			r_5meta			r_toe			L_knee			L_shank_antsup			L_ankle			L_calc			L_5meta			L_toe			r_sh2			r_sh3			r_sh4			L_sh2			L_sh3			r_thigh1			r_thigh2			r_thigh3			r_thigh4			r_thigh5			L_thigh1			L_thigh2			L_thigh3			L_thigh4			r.ASIS			r.PSIS			L.ASIS			L.PSIS			C7			R_Shoulder			L_Shoulder			R_Sternum			L_Sternum			R_humerus			R_elbow_med			R_elbow_lat			R_forearm			R_wrist_radius			R_wrist_ulna			L_humerus			L_elbow_med			L_elbow_lat			L_forearm			L_wrist_radius			L_wrist_ulna			R_HJC			L_HJC			R_HJC_reg			L_HJC_reg			
		X1	Y1	Z1	X2	Y2	Z2	X3	Y3	Z3	X4	Y4	Z4	X5	Y5	Z5	X6	Y6	Z6	X7	Y7	Z7	X8	Y8	Z8	X9	Y9	Z9	X10	Y10	Z10	X11	Y11	Z11	X12	Y12	Z12	X13	Y13	Z13	X14	Y14	Z14	X15	Y15	Z15	X16	Y16	Z16	X17	Y17	Z17	X18	Y18	Z18	X19	Y19	Z19	X20	Y20	Z20	X21	Y21	Z21	X22	Y22	Z22	X23	Y23	Z23	X24	Y24	Z24	X25	Y25	Z25	X26	Y26	Z26	X27	Y27	Z27	X28	Y28	Z28	X29	Y29	Z29	X30	Y30	Z30	X31	Y31	Z31	X32	Y32	Z32	X33	Y33	Z33	X34	Y34	Z34	X35	Y35	Z35	X36	Y36	Z36	X37	Y37	Z37	X38	Y38	Z38	X39	Y39	Z39	X40	Y40	Z40	X41	Y41	Z41	X42	Y42	Z42	X43	Y43	Z43	X44	Y44	Z44	X45	Y45	Z45	X46	Y46	Z46	X47	Y47	Z47	X48	Y48	Z48	X49	Y49	Z49	X50	Y50	Z50	X51	Y51	Z51	

219	2.18000000	-194.62185	547.02447	-415.22773	-166.99332	420.99987	-414.35746	-291.17852	100.37427	-408.19842	-355.02242	66.93077	-458.19145	-168.13501	37.65966	-346.61057	-122.42672	59.12400	-415.38455	-202.89173	542.86494	-861.64375	-157.80075	435.46434	-861.24258	-272.35063	98.24976	-892.23717	-336.43116	68.02911	-847.52472	-129.25030	33.96499	-911.08609	-102.51608	60.04547	-840.44041	-177.53519	306.10876	-428.89525	-234.11741	420.28701	-374.14766	-237.02484	303.70105	-368.35509	-240.83811	449.45201	-895.28622	-235.16415	328.67165	-920.74575	-133.71766	792.01740	-445.07162	-116.58801	681.29761	-444.68168	-148.25810	651.82591	-392.83983	-222.97865	775.81299	-376.57080	-203.06065	659.16031	-386.43904	-177.70645	806.39845	-843.85399	-142.19235	673.90954	-856.11649	-285.28061	777.25138	-864.33929	-248.39410	644.52954	-869.28115	-184.80276	1034.47142	-480.07795	-385.33335	1092.07984	-564.98621	-189.49814	1021.86855	-745.77142	-387.29194	1090.91221	-664.04372	-256.86669	1574.60390	-600.67318	-196.73941	1493.70791	-415.29958	-176.62806	1527.75450	-773.27804	-128.10094	1484.76026	-576.25965	-127.19237	1482.52873	-619.39521	-197.62903	1329.94413	-338.13790	-290.17754	1113.52599	-356.03119	-247.07626	1143.18383	-278.73156	-117.47880	1187.58904	-376.88595	-27.79276	1202.04612	-454.40784	-7.33240	1166.35017	-441.44682	-175.51764	1362.88386	-867.07383	-275.97252	1150.28951	-873.15828	-212.66504	1177.42639	-932.71082	-117.39805	1215.23274	-799.13001	-28.65134	1215.34438	-722.87883	-9.72437	1177.70417	-744.16281	-278.52119	965.30713	-512.21512	-280.25335	945.13933	-724.64469	-268.50806	959.28622	-515.38804	-271.97964	957.21800	-690.92410	
220	2.19000000	-193.38755	546.45002	-414.68620	-165.80571	420.27416	-413.98134	-291.14124	100.30274	-408.14881	-355.09239	66.83566	-458.16754	-168.17861	37.67723	-346.58971	-122.51411	59.14417	-415.39564	-202.20971	542.58472	-862.84774	-157.01014	435.07335	-862.08400	-272.29289	99.11232	-894.49991	-336.43923	67.93611	-847.48276	-129.27043	33.94640	-911.12182	-102.55175	60.02160	-840.46410	-176.78062	305.42111	-428.67949	-232.81180	419.70630	-373.38921	-236.48218	303.09807	-368.36700	-239.95594	449.23551	-896.24616	-234.55385	328.20356	-921.08298	-136.45964	792.16783	-445.03991	-117.69757	681.42246	-445.12793	-148.51674	651.97482	-392.28661	-225.20167	774.72038	-376.24697	-203.57956	658.38218	-386.07851	-180.12208	806.29067	-844.58716	-142.98375	674.22093	-856.83094	-287.39467	775.65818	-864.94154	-248.82771	643.44890	-870.18814	-189.38602	1031.99694	-480.28044	-388.93106	1091.62159	-565.57908	-193.53740	1019.42968	-745.61508	-390.66917	1090.54260	-664.60459	-253.66300	1572.41575	-601.47260	-194.65330	1491.24025	-416.07651	-173.67727	1524.73585	-773.55090	-126.12980	1481.10394	-576.83793	-125.17355	1478.76083	-620.02620	-196.66929	1327.73773	-338.72208	-290.20082	1111.74792	-356.17380	-246.96450	1141.24927	-279.04430	-116.98819	1185.06770	-376.88198	-27.02379	1199.25531	-454.29242	-6.83754	1163.37567	-441.27746	-173.57970	1359.99569	-867.23927	-275.48408	1148.12749	-873.48303	-211.89995	1174.68215	-932.84887	-116.47832	1212.11994	-799.64107	-27.27257	1211.96998	-722.96764	-9.04033	1173.89842	-744.21679	-283.68453	963.79699	-512.49109	-285.06621	943.63667	-724.92395	-273.67180	957.67878	-515.77527	-276.74939	955.76919	-691.07527	
221	2.20000000	-192.03094	545.83051	-414.10294	-164.49709	419.57005	-413.43384	-291.11939	100.22254	-408.08154	-355.10980	66.81392	-458.19613	-168.19587	37.65290	-346.59140	-122.59970	59.22238	-415.40063	-201.48267	542.28635	-864.01557	-156.19609	434.63762	-863.01597	-272.26969	99.45660	-895.63344	-336.43170	67.93154	-847.50647	-129.28916	33.92609	-911.15246	-102.57298	60.01197	-840.48296	-175.92700	304.73431	-428.52596	-231.31975	419.19566	-372.67713	-235.70427	302.16913	-369.12502	-239.04062	448.94212	-897.12051	-233.83929	327.78325	-921.57465	-139.26789	792.31272	-445.02259	-118.65492	681.86072	-444.91717	-148.74796	652.02213	-391.88738	-227.50108	773.62890	-376.01955	-203.98748	657.58202	-385.61116	-182.61590	806.15907	-845.33679	-143.85869	674.63111	-857.53368	-289.54125	774.12780	-865.82527	-249.19685	642.47842	-871.42291	-194.07594	1029.21627	-480.56221	-392.66420	1090.92559	-566.15088	-197.72906	1016.77007	-745.53631	-394.07778	1090.17516	-665.32722	-250.29346	1569.99482	-602.20287	-192.49629	1488.49548	-416.71422	-170.60929	1521.35575	-773.88441	-124.05846	1477.09550	-577.37246	-123.03361	1474.68056	-620.51074	-195.63821	1325.28572	-339.37870	-290.10846	1109.86324	-356.17154	-246.75365	1139.04335	-279.30259	-116.48579	1182.24557	-376.90247	-26.21832	1196.11845	-454.23190	-6.30281	1160.11808	-441.18408	-171.44815	1356.78613	-867.48899	-274.84886	1145.69903	-874.10234	-211.08940	1171.39514	-932.50996	-115.39241	1208.65829	-799.96569	-26.01025	1208.19967	-723.02884	-8.28401	1169.75975	-744.45887	-289.03300	962.04797	-512.89655	-290.06301	942.01005	-725.34312	-279.01009	955.51225	-516.49642	-281.50569	954.18709	-691.56436	
222	2.21000000	-190.59117	545.29416	-413.36601	-163.09240	418.91795	-412.78382	-291.11076	100.16417	-408.00300	-355.08077	66.84959	-458.26096	-168.22585	37.63474	-346.62034	-122.65630	59.35122	-415.38090	-200.69348	541.85560	-864.96756	-155.32156	434.13713	-863.77947	-272.26696	99.24343	-895.54125	-336.43244	67.95644	-847.58209	-129.30281	33.89433	-911.18720	-102.59111	60.03027	-840.52593	-175.00601	304.09872	-428.38713	-229.81481	418.67345	-372.09292	-234.82089	301.42170	-369.05238	-238.14119	448.57104	-897.92793	-233.15483	327.40141	-922.15051	-142.08710	792.46780	-444.99163	-119.52568	682.37935	-444.58206	-149.00633	651.98347	-391.67230	-229.80200	772.53707	-375.75644	-204.25749	656.78920	-384.92523	-185.31916	806.01322	-846.16729	-144.77997	675.02977	-858.30674	-291.75970	772.61291	-867.10808	-249.59908	641.52057	-872.77661	-198.83775	1026.16283	-480.84132	-396.45685	1090.06742	-566.85007	-202.08431	1013.92908	-745.59278	-397.78576	1089.64575	-666.24611	-246.75334	1567.30390	-602.87758	-190.19814	1485.37744	-417.44310	-167.41534	1517.62893	-774.41316	-121.89519	1472.67210	-577.90633	-120.78095	1470.22847	-620.86412	-194.48590	1322.51326	-340.03927	-289.80309	1107.56419	-356.41197	-246.43965	1136.50055	-279.64055	-115.94244	1179.13346	-377.01795	-25.41839	1192.60315	-454.20886	-5.68528	1156.57462	-441.02166	-169.15011	1353.22644	-867.75110	-274.18434	1142.85737	-874.74006	-210.15101	1167.68849	-932.14431	-114.16449	1204.85162	-800.06790	-24.91846	1203.94799	-723.28531	-7.48865	1165.24147	-744.72528	-294.54868	960.10441	-513.43363	-295.23599	940.21509	-725.89547	-284.31731	953.17165	-517.03440	-286.65512	952.42987	-691.95312	
223	2.22000000	-189.10393	544.82201	-412.49335	-161.72620	418.25192	-412.20539	-291.10552	100.15223	-407.92677	-355.06490	66.86826	-458.32009	-168.26926	37.65622	-346.65227	-122.67251	59.49381	-415.33615	-199.94197	541.42192	-865.94455	-154.45315	433.67281	-864.53128	-272.25983	99.00295	-895.40289	-336.37884	67.89808	-847.69859	-129.33152	33.86300	-911.26097	-102.61188	60.04834	-840.57727	-174.09080	303.50841	-428.12139	-228.46314	418.15472	-371.47683	-233.83014	301.19168	-367.74610	-237.31575	448.19019	-898.74675	-232.60540	326.98490	-922.65514	-144.96706	792.61557	-444.98417	-120.37415	682.92445	-444.29253	-149.21364	651.99078	-391.45176	-232.14154	771.30116	-375.45969	-204.49077	655.92872	-384.20526	-188.17267	805.79300	-846.99428	-145.68726	675.31102	-859.09648	-294.02911	770.93394	-868.29188	-250.08700	640.34769	-873.93740	-203.83407	1022.84584	-481.13489	-400.33306	1089.10834	-567.61225	-206.55348	1010.89748	-745.64308	-401.79367	1088.80459	-667.07677	-243.08341	1564.24802	-603.60212	-187.71404	1481.84345	-418.31279	-164.14066	1513.48776	-774.93382	-119.65600	1467.82933	-578.46634	-118.48340	1465.33384	-621.28831	-193.20896	1319.40182	-340.64879	-289.37523	1104.70263	-356.77301	-246.02767	1133.59901	-280.03033	-115.29297	1175.75021	-377.10572	-24.62423	1188.74579	-454.05677	-5.01219	1152.65196	-440.84456	-166.78913	1349.29094	-867.98732	-273.47928	1139.54219	-875.14011	-209.08041	1163.77670	-932.15971	-112.92253	1200.67678	-800.25580	-23.81901	1199.25790	-723.69197	-6.66839	1160.32630	-744.86812	-300.25778	957.95756	-513.97348	-300.59253	938.21965	-726.45010	-289.72649	951.01334	-517.25274	-292.29313	950.47999	-691.99672	
224	2.23000000	-187.63642	544.24487	-411.58674	-160.49574	417.53805	-411.60569	-291.08553	100.15657	-407.85310	-355.07253	66.85867	-458.36497	-168.29750	37.68012	-346.64275	-122.66809	59.62948	-415.26650	-199.24100	541.03011	-867.08231	-153.59668	433.23565	-865.46494	-272.25546	98.92306	-895.59061	-336.33936	67.84243	-847.80692	-129.36771	33.82306	-911.34759	-102.63384	60.04445	-840.62064	-173.26346	302.91428	-427.67183	-227.31293	417.70113	-370.73702	-232.70155	300.91040	-366.87728	-236.52662	447.79658	-899.54264	-232.10842	326.58793	-923.26947	-147.97012	792.65439	-445.02933	-121.22948	683.63304	-443.77417	-149.37727	652.06838	-391.10585	-234.59462	769.89130	-375.17281	-204.77155	654.97557	-383.52263	-191.05681	805.44354	-847.77723	-146.58608	675.54105	-859.88622	-296.33522	768.99265	-869.06461	-250.63014	638.97372	-874.97109	-209.02737	1019.51911	-481.52039	-404.39075	1088.00378	-568.37993	-211.09585	1007.67587	-745.69331	-405.73246	1087.73618	-667.69585	-239.33961	1560.85271	-604.29495	-185.09305	1477.94793	-419.11640	-160.73794	1508.92064	-775.34441	-117.33823	1462.58678	-579.01617	-116.18451	1459.96195	-621.85545	-191.80662	1315.99352	-341.19136	-288.93943	1101.38403	-357.01671	-245.54756	1130.41597	-280.24334	-114.55683	1172.07428	-377.09434	-23.81048	1184.51300	-453.80890	-4.35712	1148.34007	-440.81549	-164.36896	1344.91041	-868.13054	-272.60980	1135.91332	-875.57628	-207.89151	1159.65706	-932.44985	-111.66138	1196.12919	-800.69998	-22.67828	1194.18019	-724.03121	-5.75821	1155.07231	-745.00723	-306.02878	955.72320	-514.44964	-306.02324	936.04684	-726.93255	-295.43349	948.80536	-517.70413	-297.79241	948.33545	-692.22092	
